<svg xmlns="http://www.w3.org/2000/svg" width="1080" height="450" viewBox="0 0 1080 450" role="img" aria-label="Dos paneles con la memoria como una barra vertical sobre la misma linea base. Lista: los doce elementos del archivo se apilan en la barra, que queda alta, y despues van a sum; la memoria crece con el archivo. Generador: los elementos siguen en el archivo, yield entrega uno, la barra tiene un solo elemento y ese va a sum; la memoria queda fija"><rect x="0" y="0" width="1080" height="450" rx="16" fill="#0b0f12"/><defs><marker id="f4a7a63" viewBox="0 0 10 10" refX="9" refY="5" markerWidth="6" markerHeight="6" orient="auto-start-reverse"><path d="M 0 0 L 10 5 L 0 10 z" fill="#4a7a63"/></marker><marker id="f7ef29d" viewBox="0 0 10 10" refX="9" refY="5" markerWidth="6" markerHeight="6" orient="auto-start-reverse"><path d="M 0 0 L 10 5 L 0 10 z" fill="#7ef29d"/></marker><marker id="fffc857" viewBox="0 0 10 10" refX="9" refY="5" markerWidth="6" markerHeight="6" orient="auto-start-reverse"><path d="M 0 0 L 10 5 L 0 10 z" fill="#ffc857"/></marker><marker id="f6fd8e8" viewBox="0 0 10 10" refX="9" refY="5" markerWidth="6" markerHeight="6" orient="auto-start-reverse"><path d="M 0 0 L 10 5 L 0 10 z" fill="#6fd8e8"/></marker><marker id="fc9a7ff" viewBox="0 0 10 10" refX="9" refY="5" markerWidth="6" markerHeight="6" orient="auto-start-reverse"><path d="M 0 0 L 10 5 L 0 10 z" fill="#c9a7ff"/></marker><marker id="fff8a7a" viewBox="0 0 10 10" refX="9" refY="5" markerWidth="6" markerHeight="6" orient="auto-start-reverse"><path d="M 0 0 L 10 5 L 0 10 z" fill="#ff8a7a"/></marker><marker id="fa7b8ad" viewBox="0 0 10 10" refX="9" refY="5" markerWidth="6" markerHeight="6" orient="auto-start-reverse"><path d="M 0 0 L 10 5 L 0 10 z" fill="#a7b8ad"/></marker><marker id="fe8f0e8" viewBox="0 0 10 10" refX="9" refY="5" markerWidth="6" markerHeight="6" orient="auto-start-reverse"><path d="M 0 0 L 10 5 L 0 10 z" fill="#e8f0e8"/></marker></defs><text x="540.0" y="44" fill="#e8f0e8" font-family="system-ui, sans-serif" font-size="21" font-weight="600" text-anchor="middle">Todo a la vez o uno a la vez</text><line x1="540" y1="66" x2="540" y2="430" stroke="#4a7a63" stroke-width="1.5" stroke-dasharray="6 6"/><text x="280" y="84" fill="#ffc857" font-family="system-ui, sans-serif" font-size="16" font-weight="600" text-anchor="middle">lista</text><text x="810" y="84" fill="#7ef29d" font-family="system-ui, sans-serif" font-size="16" font-weight="600" text-anchor="middle">generador</text><text x="280" y="112" fill="#ffc857" font-family="ui-monospace, SFMono-Regular, Menlo, monospace" font-size="14" font-weight="normal" text-anchor="middle">[float(p) for p in precios]</text><text x="810" y="112" fill="#7ef29d" font-family="ui-monospace, SFMono-Regular, Menlo, monospace" font-size="14" font-weight="normal" text-anchor="middle">yield float(p)</text><line x1="80" y1="382" x2="470" y2="382" stroke="#a7b8ad" stroke-width="1.5"/><text x="470" y="400" fill="#a7b8ad" font-family="system-ui, sans-serif" font-size="12" font-weight="normal" text-anchor="end">memoria</text><line x1="610" y1="382" x2="1000" y2="382" stroke="#a7b8ad" stroke-width="1.5"/><text x="1000" y="400" fill="#a7b8ad" font-family="system-ui, sans-serif" font-size="12" font-weight="normal" text-anchor="end">memoria</text><rect x="160" y="360" width="120" height="18" rx="3" fill="#ffc857" stroke="#ffc857" stroke-width="1"/><rect x="160" y="340" width="120" height="18" rx="3" fill="#ffc857" stroke="#ffc857" stroke-width="1"/><rect x="160" y="320" width="120" height="18" rx="3" fill="#ffc857" stroke="#ffc857" stroke-width="1"/><rect x="160" y="300" width="120" height="18" rx="3" fill="#ffc857" stroke="#ffc857" stroke-width="1"/><rect x="160" y="280" width="120" height="18" rx="3" fill="#ffc857" stroke="#ffc857" stroke-width="1"/><rect x="160" y="260" width="120" height="18" rx="3" fill="#ffc857" stroke="#ffc857" stroke-width="1"/><rect x="160" y="240" width="120" height="18" rx="3" fill="#ffc857" stroke="#ffc857" stroke-width="1"/><rect x="160" y="220" width="120" height="18" rx="3" fill="#ffc857" stroke="#ffc857" stroke-width="1"/><rect x="160" y="200" width="120" height="18" rx="3" fill="#ffc857" stroke="#ffc857" stroke-width="1"/><rect x="160" y="180" width="120" height="18" rx="3" fill="#ffc857" stroke="#ffc857" stroke-width="1"/><rect x="160" y="160" width="120" height="18" rx="3" fill="#ffc857" stroke="#ffc857" stroke-width="1"/><rect x="160" y="140" width="120" height="18" rx="3" fill="#ffc857" stroke="#ffc857" stroke-width="1"/><line x1="284" y1="360" x2="356" y2="360" stroke="#ffc857" stroke-width="2.2" marker-end="url(#fffc857)"/><rect x="360" y="340" width="130" height="40" rx="8" fill="#141b20" stroke="#ffc857" stroke-width="2"/><text x="425" y="366" fill="#ffc857" font-family="ui-monospace, SFMono-Regular, Menlo, monospace" font-size="15" font-weight="600" text-anchor="middle">sum()</text><text x="90" y="230" fill="#ffc857" font-family="system-ui, sans-serif" font-size="13.5" font-weight="normal" text-anchor="start">12 de 12</text><text x="90" y="248" fill="#ffc857" font-family="system-ui, sans-serif" font-size="13.5" font-weight="normal" text-anchor="start">a la vez</text><text x="280" y="414" fill="#ffc857" font-family="system-ui, sans-serif" font-size="14" font-weight="normal" text-anchor="middle">la memoria crece con el archivo</text><rect x="700" y="150" width="120" height="18" rx="3" fill="none" stroke="#a7b8ad" stroke-width="1.2" stroke-dasharray="4 3"/><rect x="700" y="170" width="120" height="18" rx="3" fill="none" stroke="#a7b8ad" stroke-width="1.2" stroke-dasharray="4 3"/><rect x="700" y="190" width="120" height="18" rx="3" fill="none" stroke="#a7b8ad" stroke-width="1.2" stroke-dasharray="4 3"/><rect x="700" y="210" width="120" height="18" rx="3" fill="none" stroke="#a7b8ad" stroke-width="1.2" stroke-dasharray="4 3"/><rect x="700" y="230" width="120" height="18" rx="3" fill="none" stroke="#a7b8ad" stroke-width="1.2" stroke-dasharray="4 3"/><rect x="700" y="250" width="120" height="18" rx="3" fill="none" stroke="#a7b8ad" stroke-width="1.2" stroke-dasharray="4 3"/><text x="690" y="196" fill="#a7b8ad" font-family="system-ui, sans-serif" font-size="13" font-weight="normal" text-anchor="end">aún en</text><text x="690" y="214" fill="#a7b8ad" font-family="system-ui, sans-serif" font-size="13" font-weight="normal" text-anchor="end">el archivo</text><line x1="760" y1="274" x2="760" y2="356" stroke="#7ef29d" stroke-width="2.2" marker-end="url(#f7ef29d)"/><rect x="724.5" y="302" width="71" height="28" rx="6" fill="#0b0f12" stroke="#7ef29d" stroke-width="1.2"/><text x="760" y="321" fill="#7ef29d" font-family="ui-monospace, SFMono-Regular, Menlo, monospace" font-size="13" font-weight="600" text-anchor="middle">yield</text><rect x="700" y="360" width="120" height="18" rx="3" fill="#7ef29d" stroke="#7ef29d" stroke-width="1"/><line x1="824" y1="360" x2="886" y2="360" stroke="#7ef29d" stroke-width="2.2" marker-end="url(#f7ef29d)"/><rect x="890" y="340" width="130" height="40" rx="8" fill="#141b20" stroke="#7ef29d" stroke-width="2"/><text x="955" y="366" fill="#7ef29d" font-family="ui-monospace, SFMono-Regular, Menlo, monospace" font-size="15" font-weight="600" text-anchor="middle">sum()</text><text x="810" y="414" fill="#7ef29d" font-family="system-ui, sans-serif" font-size="14" font-weight="normal" text-anchor="middle">uno a la vez: la memoria queda fija</text></svg>